<?xml version="1.0" encoding="UTF-8" standalone="no"?>
<!-- Created with Inkscape (http://www.inkscape.org/) -->

<svg
   width="43.900002mm"
   height="50.799999mm"
   viewBox="0 0 43.900001 50.799999"
   version="1.1"
   id="svg5"
   sodipodi:docname="garage.hex.svg"
   inkscape:version="1.3.2 (091e20ef0f, 2023-11-25)"
   xmlns:inkscape="http://www.inkscape.org/namespaces/inkscape"
   xmlns:sodipodi="http://sodipodi.sourceforge.net/DTD/sodipodi-0.dtd"
   xmlns:xlink="http://www.w3.org/1999/xlink"
   xmlns="http://www.w3.org/2000/svg"
   xmlns:svg="http://www.w3.org/2000/svg">
  <sodipodi:namedview
     id="namedview8"
     pagecolor="#ffffff"
     bordercolor="#666666"
     borderopacity="1.0"
     inkscape:pageshadow="2"
     inkscape:pageopacity="0.0"
     inkscape:pagecheckerboard="0"
     inkscape:document-units="mm"
     showgrid="false"
     fit-margin-top="0"
     fit-margin-left="0"
     fit-margin-right="0"
     fit-margin-bottom="0"
     inkscape:zoom="1.6462449"
     inkscape:cx="150.64587"
     inkscape:cy="178.89197"
     inkscape:window-width="1920"
     inkscape:window-height="1007"
     inkscape:window-x="0"
     inkscape:window-y="0"
     inkscape:window-maximized="1"
     inkscape:current-layer="svg5"
     inkscape:showpageshadow="2"
     inkscape:deskcolor="#d1d1d1" />
  <defs
     id="defs2">
    <linearGradient
       gradientUnits="userSpaceOnUse"
       y2="161.62906"
       x2="79.058426"
       y1="157.91002"
       x1="100.54038"
       id="linearGradient884"
       xlink:href="#linearGradient880" />
    <linearGradient
       id="linearGradient880">
      <stop
         id="stop876"
         offset="0"
         style="stop-color:#784421;stop-opacity:1;" />
      <stop
         id="stop878"
         offset="1"
         style="stop-color:#784421;stop-opacity:0;" />
    </linearGradient>
    <linearGradient
       gradientUnits="userSpaceOnUse"
       y2="187.636"
       x2="162.18832"
       y1="188.57594"
       x1="188.85896"
       id="linearGradient1106"
       xlink:href="#linearGradient880" />
    <linearGradient
       gradientUnits="userSpaceOnUse"
       y2="208.92482"
       x2="-1.8827039"
       y1="261.78836"
       x1="-1.8827039"
       id="linearGradient1408-6"
       xlink:href="#linearGradient1406" />
    <linearGradient
       id="linearGradient1406">
      <stop
         id="stop1402"
         offset="0"
         style="stop-color:#000000;stop-opacity:1;" />
      <stop
         id="stop1404"
         offset="1"
         style="stop-color:#000000;stop-opacity:0;" />
    </linearGradient>
    <radialGradient
       gradientUnits="userSpaceOnUse"
       gradientTransform="matrix(1,0,0,1.4639338,0,-64.581152)"
       r="56.134296"
       fy="127.04554"
       fx="140.49042"
       cy="127.04554"
       cx="140.49042"
       id="radialGradient1608"
       xlink:href="#linearGradient1606" />
    <linearGradient
       id="linearGradient1606">
      <stop
         id="stop1602"
         offset="0"
         style="stop-color:#fdbc5c;stop-opacity:1" />
      <stop
         id="stop1604"
         offset="1"
         style="stop-color:#fdd08c;stop-opacity:0;" />
    </linearGradient>
    <linearGradient
       gradientUnits="userSpaceOnUse"
       y2="276.31"
       y1="233.23"
       x2="529.53003"
       x1="479.79001"
       id="d">
      <stop
         id="stop16254"
         stop-color="#fff"
         offset="0" />
      <stop
         id="stop16256"
         stop-opacity="0"
         stop-color="#fff"
         offset="1" />
    </linearGradient>
    <clipPath
       id="c">
      <path
         id="path16259"
         fill="#009688"
         fill-rule="evenodd"
         d="m 503.51,222.01 c -20.04,0 -36.286,16.246 -36.286,36.286 0,1.925 0.151,3.814 0.44,5.657 1.402,6.762 6.687,9.389 6.687,9.389 1.108,0.908 2.484,1.836 4.073,2.752 l -0.13,-0.004 c 0,0 3.331,18.563 9.444,18.41 4.622,-0.116 8.25,-9.453 14.128,-9.265 5.872,0.188 8.256,9.151 14.1,9.213 3.374,0.036 6.307,-5.744 8.16,-10.528 0.586,-0.12 1.17,-0.25 1.749,-0.392 5.556,5.254 18.398,10.599 23.87,12.412 a 0.533,0.533 0 0 0 0.177,-0.14 c 1.396,-1.82 -7.954,-16.01 -12.983,-23.372 a 36.17,36.17 0 0 0 2.856,-14.132 c 0,-20.04 -16.246,-36.286 -36.286,-36.286 z" />
    </clipPath>
    <filter
       color-interpolation-filters="sRGB"
       height="1.1272249"
       width="1.1135408"
       y="-0.063612454"
       x="-0.056770418"
       id="b">
      <feGaussianBlur
         id="feGaussianBlur16262"
         stdDeviation="7.406" />
    </filter>
    <filter
       color-interpolation-filters="sRGB"
       height="1.071391"
       width="1.072607"
       y="-0.035695516"
       x="-0.036303554"
       id="a">
      <feGaussianBlur
         id="feGaussianBlur16265"
         stdDeviation="1.279" />
    </filter>
  </defs>
  <g
     id="g44"
     transform="matrix(0.02803732,0,0,-0.02808879,151.65161,86.820167)" />
  <polygon
     points="36.911,66.116 36.911,132.309 36.911,135.321 39.346,136.825 96.715,169.921 99.273,171.419 101.853,169.921 159.319,136.825 161.938,135.321 161.938,132.309 161.938,66.116 161.938,63.104 159.308,61.6 101.841,28.504 99.234,27.006 96.629,28.504 39.347,61.6 36.911,63.104 "
     id="polygon71814"
     style="fill:#4e4e4e;fill-opacity:1"
     transform="matrix(0.35112416,0,0,0.35176889,-12.960344,-9.4998706)" />
  <path
     id="path49361"
     style="fill:#ff9329;fill-opacity:1;stroke:none;stroke-width:0.0207045"
     d="m 18.503748,42.971263 c -0.125741,0 -0.228738,0.103202 -0.228738,0.229162 v 1.606418 c 0,0.125971 0.102997,0.229159 0.228738,0.229159 h 3.413919 c 0.125728,0 0.228358,-0.103203 0.228358,-0.229159 v -0.378364 c 0,-0.04191 0.0166,-0.08205 0.04621,-0.11171 l 0.188262,-0.188608 c 0.05253,-0.05262 0.05229,-0.13768 -4.05e-4,-0.190138 l -0.1875,-0.187078 c -0.02978,-0.02965 -0.04658,-0.07003 -0.04658,-0.112096 v -0.438428 c 0,-0.125956 -0.102636,-0.229158 -0.228359,-0.229158 z m 2.231652,0.349288 c 0.115528,0 0.220479,0.01953 0.31466,0.05853 0.04082,0.01692 0.07863,0.03729 0.113792,0.06082 0.07455,0.04988 0.07848,0.159736 0.0065,0.216539 -0.04619,0.03646 -0.111962,0.03686 -0.160387,0.0033 -0.07623,-0.05259 -0.162841,-0.07881 -0.259671,-0.07881 -0.08415,0 -0.158873,0.01761 -0.224156,0.0528 -0.06532,0.03528 -0.115944,0.08501 -0.152368,0.149205 -0.03643,0.06416 -0.055,0.13772 -0.055,0.220742 0,0.0818 0.01855,0.154671 0.055,0.21883 0.03643,0.06416 0.08691,0.114116 0.151603,0.14997 0.06467,0.03586 0.138217,0.05394 0.221102,0.05394 0.04818,0 0.09381,-0.0058 0.136704,-0.01722 0.04563,-0.0121 0.08034,-0.04626 0.09394,-0.08951 0.0049,-0.01534 -0.0068,-0.03098 -0.02291,-0.03098 -0.08765,0 -0.158117,-0.07432 -0.152366,-0.163358 0.0053,-0.08124 0.07643,-0.142698 0.157712,-0.142698 h 0.150456 c 0.0014,0 0.0029,3.68e-4 0.0042,3.68e-4 0.0014,-4.1e-5 0.0025,-3.68e-4 0.0037,-3.68e-4 h 0.01069 c 0.07412,0 0.13404,0.06044 0.13404,0.13466 v 0.187461 c 0,0.154121 -0.09898,0.292178 -0.245923,0.337811 -9.92e-4,1.95e-4 -0.0018,3.69e-4 -0.0026,7.36e-4 -0.0942,0.02895 -0.189072,0.04324 -0.284494,0.04324 -0.136898,0 -0.260008,-0.0291 -0.369268,-0.08762 -0.109256,-0.0585 -0.194839,-0.139508 -0.256997,-0.243314 -0.06216,-0.103798 -0.09319,-0.221096 -0.09319,-0.351967 0,-0.130823 0.03101,-0.24818 0.09319,-0.351963 0.06216,-0.103813 0.148361,-0.185216 0.258906,-0.243699 0.110463,-0.0585 0.234928,-0.08761 0.373089,-0.08761 z m -1.938376,0.02258 h 0.03017 c 0.04518,0 0.08786,0.02045 0.116471,0.05547 l 0.499487,0.610585 c 0.03728,0.04563 0.111129,0.01954 0.111129,-0.0394 V 43.49425 c 0,-0.08338 0.06723,-0.151118 0.150458,-0.151118 0.08323,0 0.150839,0.06773 0.150839,0.151118 v 1.019167 c 0,0.08338 -0.0676,0.150735 -0.150839,0.150735 h -0.02826 c -0.04511,0 -0.08784,-0.02016 -0.116472,-0.0551 l -0.501394,-0.611348 c -0.03732,-0.04552 -0.11113,-0.01912 -0.11113,0.03979 v 0.475919 c 0,0.08338 -0.06722,0.150735 -0.15046,0.150735 -0.08322,0 -0.150837,-0.06736 -0.150837,-0.150735 v -1.019168 c 0,-0.08339 0.06763,-0.151117 0.150837,-0.151117 z m 2.825459,0 c 0.08427,0 0.152748,0.06859 0.152748,0.153029 v 1.015347 c 0,0.08443 -0.06847,0.152644 -0.152748,0.152644 -0.08427,0 -0.152367,-0.06823 -0.152367,-0.152644 V 43.49616 c 0,-0.08442 0.0681,-0.153029 0.152367,-0.153029 z" />
  <g
     aria-label="Z E R O"
     transform="matrix(0.02068563,0,0,0.02072362,17.981874,45.32986)"
     style="font-variant:normal;font-weight:600;font-stretch:normal;font-size:31.76px;font-family:'Montserrat SemiBold';-inkscape-font-specification:Montserrat-SemiBold;font-variant-ligatures:normal;font-variant-caps:normal;font-variant-numeric:normal;font-feature-settings:normal;text-align:start;writing-mode:lr-tb;text-anchor:start;fill:#ff0000;fill-opacity:1;fill-rule:nonzero;stroke:none"
     id="g49371">
    <path
       style="fill:#ff9329;fill-opacity:1"
       d="m 243.58117,-73.015206 h 19.46231 v 3.613321 l -12.42176,15.02707 h 12.77844 v 4.512774 h -20.17567 v -3.613321 l 12.42176,-15.02707 h -12.06508 z"
       id="path49363" />
    <path
       style="fill:#ff9329;fill-opacity:1"
       d="m 278.7684,-73.015206 h 16.11262 v 4.512774 h -10.14211 v 4.311172 h 9.5373 v 4.512773 h -9.5373 v 5.303672 h 10.48328 v 4.512774 H 278.7684 Z"
       id="path49365" />
    <path
       style="fill:#ff9329;fill-opacity:1"
       d="m 320.00367,-62.749034 q 1.87645,0 2.68285,-0.697851 0.82192,-0.697852 0.82192,-2.295157 0,-1.581796 -0.82192,-2.26414 -0.8064,-0.682344 -2.68285,-0.682344 h -2.51226 v 5.939492 z m -2.51226,4.125078 v 8.761915 h -5.97051 v -23.153165 h 9.11859 q 4.57481,0 6.69938,1.535274 2.14008,1.535273 2.14008,4.853945 0,2.295156 -1.11657,3.768399 -1.10105,1.473242 -3.33418,2.171093 1.22512,0.279141 2.18661,1.271641 0.97699,0.976992 1.96949,2.9775 l 3.24113,6.575313 h -6.3582 l -2.82242,-5.753399 q -0.85293,-1.736875 -1.73688,-2.372695 -0.86844,-0.635821 -2.32617,-0.635821 z"
       id="path49367" />
    <path
       style="fill:#ff9329;fill-opacity:1"
       d="m 357.57911,-69.107237 q -2.72938,0 -4.23364,2.016016 -1.50425,2.016015 -1.50425,5.675859 0,3.644336 1.50425,5.660352 1.50426,2.016015 4.23364,2.016015 2.74488,0 4.24914,-2.016015 1.50426,-2.016016 1.50426,-5.660352 0,-3.659844 -1.50426,-5.675859 -1.50426,-2.016016 -4.24914,-2.016016 z m 0,-4.32668 q 5.58281,0 8.7464,3.19461 3.1636,3.194609 3.1636,8.823945 0,5.613828 -3.1636,8.808438 -3.16359,3.194609 -8.7464,3.194609 -5.56731,0 -8.74641,-3.194609 -3.16359,-3.19461 -3.16359,-8.808438 0,-5.629336 3.16359,-8.823945 3.1791,-3.19461 8.74641,-3.19461 z"
       id="path49369" />
  </g>
  <path
     id="path49375"
     class="st0"
     d="m 12.306457,37.169929 c 0.48445,0.0057 0.969921,-0.01215 1.45367,0.0103 0.280185,0.01637 0.525495,0.245042 0.536552,0.530636 0.01452,0.717968 0.002,1.436902 0.006,2.155251 0.01002,0.182404 -0.294218,0.140189 -0.418265,0.218068 -0.718531,0.198058 -1.481093,0.274313 -2.219807,0.158228 C 11.03756,40.13604 10.501639,39.689806 10.23805,39.115997 9.9016553,38.399511 9.8476494,37.578978 9.930451,36.801041 c 0.074018,-0.650075 0.365641,-1.286603 0.876763,-1.706395 0.551356,-0.4854 1.321911,-0.663234 2.039401,-0.555629 0.520517,0.0656 1.02565,0.256271 1.456074,0.55744 -0.04908,0.303772 -0.224026,0.592475 -0.486984,0.756206 -0.470928,-0.346196 -1.073756,-0.536647 -1.658015,-0.473387 -0.510511,0.08007 -0.949819,0.473944 -1.081318,0.97579 -0.168187,0.595947 -0.168748,1.234188 -0.0637,1.841472 0.08504,0.486364 0.374154,0.983897 0.869872,1.135895 0.469576,0.154019 0.971053,0.05757 1.446178,-0.01586 0.006,-0.414863 -0.01442,-0.830894 0.01633,-1.244799 0.01132,-0.09725 -0.175378,-0.02661 -0.253453,-0.04807 -0.254804,-0.01398 -0.534138,0.04904 -0.761179,-0.09758 -0.217145,-0.203307 -0.08263,-0.515419 -0.02434,-0.756208 z"
     style="fill:#ff9329;fill-opacity:1;stroke-width:0.243714" />
  <path
     id="path49377"
     class="st0"
     d="m 18.564191,39.706887 c -0.02434,0.09758 -0.07302,0.19515 -0.146102,0.292726 -0.04868,0.09758 -0.121743,0.170758 -0.19479,0.219544 -0.316543,-0.0244 -0.584378,-0.195149 -0.754829,-0.487875 -0.292184,0.317117 -0.730471,0.512271 -1.168757,0.512271 -0.413938,0 -0.730471,-0.121971 -0.949619,-0.365908 -0.19479,-0.24394 -0.316533,-0.536667 -0.316533,-0.853785 0,-0.463483 0.146092,-0.804997 0.438286,-1.024541 0.340882,-0.243937 0.730471,-0.365908 1.144399,-0.341513 0.243497,0 0.486994,0 0.706132,0.0244 v -0.243939 c 0,-0.439089 -0.19479,-0.634239 -0.608728,-0.634239 -0.292194,0 -0.706122,0.09758 -1.241803,0.292727 -0.170451,-0.195151 -0.267846,-0.463485 -0.267846,-0.731817 0.56003,-0.243936 1.144409,-0.365907 1.753136,-0.365907 0.365241,-0.0244 0.706132,0.09758 0.998317,0.341515 0.243497,0.219545 0.389589,0.561058 0.389589,1.02454 v 1.65878 c -0.02434,0.365909 0.04868,0.561059 0.219148,0.683027 z m -2.04534,-0.195151 c 0.316543,-0.0244 0.608737,-0.146362 0.803527,-0.390302 v -0.70742 c -0.19479,-0.0244 -0.413938,-0.0244 -0.608728,-0.0244 -0.194799,-0.0244 -0.36524,0.04878 -0.511332,0.170755 -0.121744,0.121971 -0.170441,0.268334 -0.170441,0.439089 0,0.146364 0.04868,0.292727 0.146092,0.414695 0.09736,0.04878 0.219138,0.09758 0.340882,0.09758 z"
     style="fill:#ff9329;fill-opacity:1;stroke-width:0.243714" />
  <path
     id="path49379"
     class="st0"
     d="m 19.221606,36.608871 c 0.02434,-0.09758 0.07302,-0.195148 0.146102,-0.292726 0.04868,-0.09758 0.121744,-0.170758 0.19479,-0.219544 0.413937,0.04878 0.73047,0.341512 0.852224,0.731815 0.219138,-0.487876 0.56003,-0.731815 1.047014,-0.731815 0.146092,0 0.316533,0.0244 0.462625,0.04878 0,0.341516 -0.07302,0.658635 -0.243487,0.951362 -0.121743,-0.0244 -0.243487,-0.04878 -0.36524,-0.04878 -0.340882,0 -0.584379,0.170756 -0.803517,0.536663 v 2.585747 c -0.170441,0.0244 -0.340892,0.04878 -0.486984,0.04878 -0.170441,0 -0.340892,-0.0244 -0.511333,-0.04878 v -2.73211 c 0,-0.3903 -0.09735,-0.658634 -0.292194,-0.829392 z"
     style="fill:#ff9329;fill-opacity:1;stroke-width:0.243714" />
  <path
     id="path49381"
     class="st0"
     d="m 25.698489,39.706887 c -0.02434,0.09758 -0.07302,0.19515 -0.146103,0.292726 -0.04868,0.09758 -0.121743,0.170758 -0.194789,0.219544 -0.316543,-0.0244 -0.584379,-0.195149 -0.75483,-0.487875 -0.292184,0.317117 -0.73047,0.512271 -1.168757,0.512271 -0.413928,0 -0.730471,-0.121971 -0.949609,-0.365908 -0.1948,-0.24394 -0.316543,-0.536667 -0.316543,-0.853785 0,-0.463483 0.146092,-0.804997 0.438286,-1.024541 0.316533,-0.243937 0.730471,-0.365908 1.12006,-0.341513 0.243487,0 0.486984,0 0.706123,0.0244 v -0.243939 c 0,-0.439089 -0.19479,-0.634239 -0.608728,-0.634239 -0.292194,0 -0.706122,0.09758 -1.241803,0.292727 -0.170451,-0.195151 -0.267846,-0.463485 -0.267846,-0.731817 0.56003,-0.243936 1.144409,-0.365907 1.753136,-0.365907 0.365241,-0.0244 0.706132,0.09758 0.998317,0.341515 0.243497,0.219545 0.389589,0.561058 0.389589,1.02454 v 1.65878 c 0,0.365909 0.09735,0.561059 0.243497,0.683027 z m -2.045331,-0.195151 c 0.316533,-0.0244 0.608728,-0.146362 0.803517,-0.390302 v -0.70742 c -0.194789,-0.0244 -0.413938,-0.0244 -0.608727,-0.0244 -0.19479,-0.0244 -0.365241,0.04878 -0.511333,0.170755 -0.121743,0.121971 -0.170441,0.268334 -0.170441,0.439089 0,0.146364 0.04868,0.292727 0.146093,0.414695 0.09735,0.04878 0.219138,0.09758 0.340891,0.09758 z"
     style="fill:#ff9329;fill-opacity:1;stroke-width:0.243714" />
  <path
     id="path49383"
     class="st0"
     d="m 26.696805,39.682494 c -0.243497,-0.365908 -0.36524,-0.878178 -0.36524,-1.536812 0,-0.658634 0.146092,-1.170902 0.462635,-1.536811 0.267835,-0.341512 0.681773,-0.561057 1.12006,-0.561057 0.413938,0 0.803517,0.146363 1.095711,0.414695 0.146092,-0.19515 0.389589,-0.317122 0.633076,-0.341513 0.09736,0.04878 0.170441,0.146363 0.219138,0.219544 0.04868,0.09758 0.09736,0.170756 0.146103,0.292724 -0.146103,0.121971 -0.219149,0.365908 -0.219149,0.707423 v 2.293018 c 0,0.853783 -0.146092,1.463631 -0.413928,1.829537 -0.267845,0.365907 -0.754829,0.536665 -1.387905,0.536665 -0.486984,0 -0.998317,-0.09758 -1.460952,-0.268331 0,-0.268334 0.07302,-0.536667 0.243497,-0.731816 0.340882,0.170758 0.706122,0.243939 1.095701,0.243939 0.365241,0 0.608738,-0.09758 0.730481,-0.268334 0.146092,-0.219545 0.219138,-0.487877 0.19479,-0.756208 v -0.31712 c -0.292185,0.243939 -0.633076,0.390303 -1.022665,0.390303 -0.438277,-0.0244 -0.852215,-0.243941 -1.071353,-0.609846 z m 2.069669,-0.658634 v -1.878324 c -0.170441,-0.195151 -0.438276,-0.31712 -0.706122,-0.341514 -0.219138,0 -0.438287,0.146363 -0.535681,0.341514 -0.146092,0.317119 -0.219149,0.658633 -0.19479,1.000146 0,0.43909 0.04868,0.75621 0.170441,0.95136 0.07302,0.170756 0.267836,0.292727 0.462635,0.317119 0.340882,0 0.633076,-0.146363 0.803517,-0.390301 z"
     style="fill:#ff9329;fill-opacity:1;stroke-width:0.243714" />
  <path
     id="path49385"
     class="st0"
     d="m 33.928497,38.487194 h -2.264468 c 0,0.268335 0.07302,0.512272 0.219138,0.731816 0.121743,0.170759 0.340892,0.268332 0.657425,0.268332 0.36524,-0.0244 0.730481,-0.121968 1.071362,-0.292726 0.170451,0.170758 0.267846,0.390303 0.292195,0.609847 -0.462636,0.317119 -0.998317,0.487877 -1.558347,0.463481 -0.608727,0 -1.047014,-0.195149 -1.314849,-0.58545 -0.267846,-0.390302 -0.389589,-0.902573 -0.389589,-1.536812 0,-0.63424 0.146092,-1.14651 0.438286,-1.536811 0.292184,-0.390302 0.75482,-0.609847 1.241803,-0.585452 0.535682,0 0.94962,0.170758 1.241804,0.487877 0.292194,0.341513 0.462635,0.780601 0.438286,1.244086 0,0.243937 -0.02434,0.487877 -0.07302,0.731812 z m -1.558346,-1.731959 c -0.438287,0 -0.681774,0.341514 -0.706122,1.000147 h 1.412244 v -0.09758 c 0,-0.219545 -0.04868,-0.463482 -0.170441,-0.658634 -0.121743,-0.170756 -0.340892,-0.243937 -0.535681,-0.243937 z"
     style="fill:#ff9329;fill-opacity:1;stroke-width:0.243714" />
  <path
     id="path49389"
     class="st4"
     d="m 21.901275,7.7826902 c -0.36524,0 -0.730481,0.073181 -1.047024,0.2195456 L 10.09194,12.783425 c -0.1948007,0.07319 -0.2921955,0.317121 -0.2191494,0.512272 0,0 0,0 0,0 0,0.02439 0,0.02439 0.024339,0.04878 l 1.7287964,3.415137 h 1.509639 l -0.219138,-1.1953 c -0.02434,-0.09758 -0.170441,-0.780601 -0.316543,-1.268478 l 5.04028,1.5856 c 0.07302,0.317119 0.146092,0.609843 0.267835,0.878178 h 8.156963 c 0.09736,-0.268335 0.170441,-0.561059 0.219148,-0.878178 l 5.015921,-1.561205 c -0.146092,0.487875 -0.292194,1.170904 -0.316543,1.268478 l -0.219138,1.195296 h 1.509649 l 1.704439,-3.39074 0.02434,-0.02439 0.02434,-0.04878 c 0,0 0,0 0,0 0.02434,-0.04878 0.02434,-0.07317 0.02434,-0.121969 0,-0.170757 -0.09736,-0.31712 -0.243497,-0.390301 L 23.045644,8.0266302 c -0.389589,-0.1707578 -0.75483,-0.2683334 -1.144419,-0.24394 z"
     style="opacity:0.2;fill:#ff9329;fill-opacity:1;stroke-width:0.243714" />
  <path
     id="path49391"
     class="st4"
     d="m 21.901275,10.02636 c -0.36524,0 -0.730481,0.07318 -1.047024,0.219546 L 10.09194,15.027098 c -0.1948007,0.07317 -0.2921955,0.31712 -0.2191494,0.51227 0,0 0,0 0,0 0,0.02439 0,0.02439 0.024339,0.04878 l 1.7287964,3.415135 h 1.509639 l -0.219138,-1.195295 c -0.02434,-0.09758 -0.170441,-0.7806 -0.316543,-1.268478 l 5.04028,1.585599 c 0.07302,0.317121 0.146092,0.609844 0.267835,0.878178 h 8.156963 c 0.09736,-0.268334 0.170441,-0.561057 0.219148,-0.878178 l 5.015921,-1.561204 c -0.146092,0.487876 -0.292194,1.170904 -0.316543,1.268476 L 30.76435,19.02768 h 1.509649 l 1.704439,-3.390741 0.02434,-0.02439 0.02434,-0.04878 c 0,0 0,0 0,0 0.02434,-0.04878 0.02434,-0.07318 0.02434,-0.121969 0,-0.170757 -0.09736,-0.31712 -0.243497,-0.390301 L 23.045644,10.270301 c -0.389589,-0.170758 -0.75483,-0.268334 -1.144419,-0.243941 z"
     style="fill:#4e4e4e;fill-opacity:1;stroke-width:0.243714" />
  <rect
     style="fill:#4e4e4e;fill-opacity:1;fill-rule:evenodd;stroke:none;stroke-width:1.00252"
     id="rect53500"
     width="22.046675"
     height="2.493547"
     x="11.931761"
     y="15.387067" />
  <path
     id="path49393"
     class="st4"
     d="m 21.901275,12.270033 c -0.36524,0 -0.730481,0.07318 -1.047024,0.219545 L 10.09194,17.270767 c -0.1948007,0.07319 -0.2921955,0.317121 -0.2191494,0.512272 0,0 0,0 0,0 0,0.02439 0,0.02439 0.024339,0.04878 l 1.7287964,3.415138 h 1.509639 l -0.219138,-1.195301 c -0.02434,-0.09758 -0.170441,-0.780602 -0.316543,-1.268477 l 5.04028,1.585599 c 0.07302,0.317121 0.146092,0.609844 0.267835,0.878179 h 8.156963 c 0.09736,-0.268336 0.170441,-0.561058 0.219148,-0.878179 l 5.015921,-1.561205 c -0.146092,0.487875 -0.292194,1.170904 -0.316543,1.268478 L 30.76435,21.27135 h 1.509649 l 1.704439,-3.390739 0.02434,-0.02439 0.02434,-0.04878 c 0,0 0,0 0,0 0.02434,-0.04878 0.02434,-0.07318 0.02434,-0.12197 0,-0.170756 -0.09736,-0.317119 -0.243497,-0.390301 L 23.045644,12.513973 c -0.389589,-0.170758 -0.75483,-0.268334 -1.144419,-0.24394 z"
     style="opacity:0.3;fill:#ff9329;fill-opacity:1;stroke-width:0.243714" />
  <path
     id="path49395"
     class="st4"
     d="m 21.901275,14.513705 c -0.36524,0 -0.730481,0.07318 -1.047024,0.219546 L 10.09194,19.514439 c -0.1948007,0.07317 -0.2921955,0.317121 -0.2191494,0.51227 0,0 0,0 0,0 0,0.02439 0,0.02439 0.024339,0.04878 l 1.7287964,3.415136 h 1.509639 l -0.219138,-1.1953 c -0.02434,-0.09758 -0.170441,-0.7806 -0.316543,-1.268478 l 5.04028,1.5856 c 0.07302,0.31712 0.146092,0.609844 0.267835,0.878178 h 8.156963 c 0.09736,-0.268334 0.170441,-0.561058 0.219148,-0.878178 l 5.015921,-1.561205 c -0.146092,0.487877 -0.292194,1.170905 -0.316543,1.268478 l -0.219138,1.1953 h 1.509649 l 1.704439,-3.39074 0.02434,-0.02439 0.02434,-0.04878 c 0,0 0,0 0,0 0.02434,-0.04878 0.02434,-0.07317 0.02434,-0.121968 0,-0.170757 -0.09736,-0.317122 -0.243497,-0.390301 L 23.045644,14.757645 c -0.389589,-0.170758 -0.75483,-0.268333 -1.144419,-0.24394 z"
     style="fill:#4e4e4e;fill-opacity:1;stroke-width:0.243714" />
  <path
     id="path49397"
     d="m 25.207511,24.075231 c -0.219138,0.02439 -0.462625,0 -0.681773,-0.07318 l -8.473496,-2.293019 c -0.219148,-0.07317 -0.438286,-0.170757 -0.633086,-0.292726 z"
     style="stroke-width:0.243714" />
  <path
     id="path49399"
     class="st3"
     d="m 25.377962,27.587942 4.650691,-1.878326 c 0.09736,-0.04878 0.146092,-0.146363 0.121743,-0.268331 -0.02434,-0.04878 -0.04868,-0.09758 -0.121743,-0.121971 -0.535681,-0.219541 -1.217465,-0.487876 -1.87489,-0.756208 -0.121743,-0.04878 -1.266152,0.780603 -1.363546,0.853784 l -1.996633,1.609992 c -0.462636,0.439089 -0.04868,0.829392 0.584378,0.56106 z"
     style="fill:#45c8ff;stroke-width:0.243714" />
  <ellipse
     id="ellipse49401"
     class="st3"
     cx="22.017788"
     cy="29.417473"
     rx="2.4349146"
     ry="2.4393826"
     style="fill:#45c8ff;stroke-width:0.243714" />
  <path
     id="path49403"
     d="m 25.207511,24.075231 c -0.219138,0.02439 -0.462625,0 -0.681773,-0.07318 l -8.473496,-2.293019 c -0.219148,-0.07317 -0.438286,-0.170757 -0.633086,-0.292726 z"
     style="stroke-width:0.243714" />
  <path
     id="path49405"
     class="st4"
     d="m 21.920388,16.757084 c -0.365241,0 -0.730481,0.07317 -1.047024,0.219544 l -10.762313,4.781189 c -0.1947995,0.07317 -0.2921943,0.317121 -0.2191482,0.51227 0,0 0,0 0,0 0,0.02439 0,0.02439 0.024339,0.04878 l 1.7287972,3.415136 h 1.509639 l -0.219139,-1.195299 c -0.02434,-0.09758 -0.17044,-0.780601 -0.316543,-1.268478 l 5.04028,1.585599 c 0.07302,0.31712 0.146092,0.609844 0.267836,0.878178 h 8.156962 c 0.09736,-0.268334 0.170441,-0.561058 0.219149,-0.878178 l 5.015921,-1.561205 c -0.146093,0.487877 -0.292195,1.170905 -0.316543,1.268478 l -0.219139,1.195297 h 1.509649 l 1.704439,-3.39074 0.02434,-0.02439 0.02434,-0.04878 c 0,0 0,0 0,0 0.02434,-0.04878 0.02434,-0.07317 0.02434,-0.121969 0,-0.170757 -0.09736,-0.317121 -0.243497,-0.390301 L 23.064756,17.001022 C 22.675167,16.830265 22.309927,16.73269 21.920338,16.757084 Z"
     style="fill:#ff9329;stroke-width:0.243714" />
  <path
     id="path49407"
     class="st0"
     d="m 21.920388,19.001315 c -0.365241,0 -0.730481,0.07318 -1.047024,0.219545 l -10.762313,4.781189 c -0.1947995,0.07318 -0.2921943,0.31712 -0.2191482,0.512271 0,0 0,0 0,0 0,0.0244 0,0.0244 0.024339,0.04878 l 0.9252702,1.853933 h 1.996633 c -0.07302,-0.268334 -0.146103,-0.585453 -0.243497,-0.902572 l 2.848857,0.902572 h 13.002443 l 2.848847,-0.902572 c -0.09736,0.292726 -0.170441,0.634238 -0.243487,0.902572 h 1.996623 l 0.92527,-1.829537 0.02434,-0.0244 0.02434,-0.04878 c 0,0 0,0 0,0 0.02434,-0.04878 0.02434,-0.07318 0.02434,-0.121969 0,-0.170758 -0.09735,-0.317122 -0.243497,-0.390303 L 23.040377,19.220861 c -0.36524,-0.146363 -0.73048,-0.219545 -1.120059,-0.219545 z"
     style="fill:#4e4e4e;stroke-width:0.243714" />
  <path
     id="path49409"
     class="st4"
     d="m 34.046257,26.68537 c 0,0.04878 0,0.07319 -0.02434,0.121971 0,0 0,0 0,0 l -0.02434,0.04878 v 0 l -0.02434,0.0244 -2.60536,5.171491 c -0.36524,0.707422 -1.022665,0.683027 -0.92526,-0.0244 l 0.535671,-2.927255 c 0.02434,-0.09758 0.170451,-0.780603 0.316543,-1.268478 l -5.015941,1.561204 c -0.779168,5.147098 -7.548235,5.22028 -8.643947,0 l -5.040279,-1.585601 c 0.146102,0.48788 0.292194,1.170906 0.316543,1.268482 l 0.535681,2.927257 c 0.121744,0.731815 -0.56003,0.75621 -0.92527,0.0244 L 9.8919589,26.831729 c 0,-0.02438 -0.024339,-0.02438 -0.024339,-0.04878 -0.097355,-0.195149 0,-0.439089 0.1947901,-0.51227 0,0 0,0 0,0 l 10.762333,-4.781188 c 0.681773,-0.292726 1.48529,-0.292726 2.167063,0 l 10.762323,4.781189 c 0.1948,0.09758 0.292195,0.243939 0.292195,0.414695 z"
     style="fill:#ff9329;stroke-width:0.243714" />
  <path
     id="path49411"
     class="st0"
     d="m 25.377962,27.587942 4.650691,-1.878326 c 0.09736,-0.04878 0.146092,-0.146363 0.121743,-0.268331 -0.02434,-0.04878 -0.04868,-0.09758 -0.121743,-0.121971 -0.535681,-0.219541 -1.217465,-0.487876 -1.87489,-0.756208 -0.121743,-0.04878 -1.266152,0.780603 -1.363546,0.853784 l -1.996633,1.609992 c -0.462636,0.439089 -0.04868,0.829392 0.584378,0.56106 z"
     style="fill:#4e4e4e;stroke-width:0.243714" />
  <ellipse
     id="ellipse49413"
     class="st0"
     cx="22.017788"
     cy="29.417473"
     rx="2.4349146"
     ry="2.4393826"
     style="fill:#4e4e4e;stroke-width:0.243714" />
</svg>
