<?xml version="1.0" encoding="UTF-8" standalone="no"?>
<svg
   width="42"
   height="46"
   fill="none"
   version="1.1"
   id="svg2"
   sodipodi:docname="offen-icon-white.svg"
   inkscape:version="1.4.3 (0d15f75042, 2025-12-25)"
   xmlns:inkscape="http://www.inkscape.org/namespaces/inkscape"
   xmlns:sodipodi="http://sodipodi.sourceforge.net/DTD/sodipodi-0.dtd"
   xmlns="http://www.w3.org/2000/svg"
   xmlns:svg="http://www.w3.org/2000/svg">
  <defs
     id="defs2" />
  <sodipodi:namedview
     id="namedview2"
     pagecolor="#ffffff"
     bordercolor="#000000"
     borderopacity="0.25"
     inkscape:showpageshadow="2"
     inkscape:pageopacity="0.0"
     inkscape:pagecheckerboard="0"
     inkscape:deskcolor="#d1d1d1"
     inkscape:zoom="15.300317"
     inkscape:cx="24.084469"
     inkscape:cy="24.999483"
     inkscape:window-width="1920"
     inkscape:window-height="1051"
     inkscape:window-x="0"
     inkscape:window-y="0"
     inkscape:window-maximized="1"
     inkscape:current-layer="layer1" />
  <g
     inkscape:groupmode="layer"
     id="layer1"
     inkscape:label="bg"
     style="display:inline;fill:#181eff;fill-opacity:1">
    <path
       id="rect2"
       style="fill:#f7bf08;fill-opacity:1;stroke-width:0.57954"
       d="M 0,1.8638073 C 0,16.575872 0,31.287935 0,46 13.999999,46 28,46 42,46 42,30.666667 42,15.333333 42,0 28,0 13.999999,0 0,0 0,0.62126909 0,1.2425382 0,1.8638073 Z" />
  </g>
  <path
     d="m 19.276,1.347 c -2.215,0.302 -4.477,0.527 -6.595,1.354 -1.013,0.396 -1.866,1.117 -2.776,1.709 -1.54,1 -3.155,2.074 -4.376,3.487 -1.141,1.321 -1.96,3.034 -2.575,4.677 -0.711,1.901 -1.355,3.985 -1.635,6 -0.124,0.891 -0.294,1.722 -0.186,2.639 0.357,3.051 2.288,4.976 4.838,6.266 1.549,0.784 2.872,1.214 4.628,1.032 0.621,-0.065 1.23,-0.243 1.851,-0.321 0.82,-0.103 1.757,-0.116 2.545,-0.367 0.545,-0.174 0.991,-0.52 1.505,-0.759 1.293,-0.599 2.555,-1.16 3.818,-1.833 1.455,-0.777 3.062,-1.392 4.396,-2.397 1.749,-1.319 3.126,-3.567 4.036,-5.58 0.312,-0.69 0.448,-1.43 0.642,-2.16 0.71,-2.685 0.994,-5.53 -0.089,-8.159 C 28.809,5.735 28.023,4.847 27.144,3.936 26.547,3.316 25.932,2.701 25.177,2.288 24.313,1.815 23.233,1.668 22.285,1.498 21.283,1.318 20.298,1.208 19.276,1.348 Z"
     fill="#ffffff"
     id="path1"
     style="display:inline" />
  <path
     d="m 33.623,3.507 c 0.208,0.747 0.596,1.437 0.874,2.16 0.524,1.358 0.909,2.759 1.16,4.199 0.62,3.562 0.28,7.5 -0.878,10.918 -0.615,1.814 -1.518,3.523 -2.262,5.279 -1.18,2.785 -2.17,5.642 -4.679,7.464 -0.499,0.363 -1.075,0.52 -1.62,0.788 -1.547,0.764 -3.382,1.517 -5.09,1.794 -0.614,0.1 -1.228,-0.144 -1.852,-0.052 -2.277,0.336 -4.378,0.839 -6.71,0.673 C 9.946,36.544 7.22,35.752 4.929,34.41 A 23.884,23.884 0 0 1 2.731,32.97 c -0.534,-0.398 -1.01,-0.881 -1.62,-1.148 0.44,1.024 1.36,1.593 2.063,2.4 1.598,1.834 3.205,3.653 4.997,5.294 1.864,1.706 3.605,3.844 6.015,4.741 1.482,0.552 2.961,0.663 4.512,0.773 1.293,0.092 2.635,0.223 3.934,0.088 2.456,-0.254 4.85,-1.343 7.058,-2.423 1.738,-0.851 3.443,-1.667 4.84,-3.096 2.492,-2.55 4.023,-5.526 5.318,-8.857 0.738,-1.898 1.425,-3.823 1.623,-5.88 0.13,-1.337 -0.067,-2.86 -0.192,-4.198 -0.254,-2.727 -0.813,-5.27 -1.856,-7.799 -0.604,-1.466 -1.429,-2.786 -2.11,-4.2 a 21.995,21.995 0 0 0 -2.2,-3.598 c -0.43,-0.58 -0.838,-1.237 -1.49,-1.56 z"
     fill="#ffffff"
     id="path2"
     style="display:inline" />
</svg>
